<svg xmlns="http://www.w3.org/2000/svg" width="316" height="44" viewBox="0 0 316 44">
    <g fill="none" fill-rule="evenodd">
        <g fill="#FFF">
            <g>
                <g>
                    <g>
                        <path d="M0 1.342C0 .875.365.464.873.464h10.853c5.683 0 10.347 4.614 10.347 10.204 0 5.725-4.664 10.394-10.303 10.394H5.999v22.054c0 .468-.414.884-.877.884H.872C.366 44 0 43.584 0 43.116V1.342zm11.358 14.082c2.587 0 4.754-2.073 4.754-4.801 0-2.542-2.167-4.483-4.754-4.483h-5.36v9.284h5.36zM37.944 1.342c0-.467.375-.878.876-.878h18.797c.508 0 .879.411.879.878v3.785c0 .46-.37.878-.879.878H43.951v7.572h11.405c.46 0 .875.418.875.879v3.831c0 .506-.416.879-.875.879H43.951v8.08h13.666c.508 0 .879.415.879.883v3.78c0 .468-.37.884-.879.884H38.82c-.501 0-.876-.416-.876-.884V1.342zM75.71.83c0-.461.418-.828.877-.828h1.154l19.213 20.415h.049V1.342c0-.464.365-.877.876-.877h4.245c.464 0 .882.413.882.877V32.42c0 .465-.418.833-.882.833h-1.105L81.716 12.055h-.044v19.856c0 .466-.373.881-.878.881h-4.207c-.459 0-.876-.415-.876-.881V.83zM120.129 28.264l1.657-2.861c.37-.647 1.154-.647 1.568-.322.233.134 3.976 2.861 6.974 2.861 2.405 0 4.207-1.572 4.207-3.56 0-2.351-1.99-3.965-5.865-5.54-4.347-1.755-8.684-4.523-8.684-9.976 0-4.11 3.047-8.863 10.394-8.863 4.707 0 8.312 2.403 9.23 3.087.466.285.604 1.07.281 1.53l-1.758 2.631c-.365.554-1.063.925-1.613.554-.372-.23-3.883-2.543-6.422-2.543-2.631 0-4.06 1.76-4.06 3.239 0 2.165 1.71 3.645 5.447 5.17 4.483 1.8 9.654 4.478 9.654 10.44 0 4.757-4.112 9.141-10.624 9.141-5.82 0-9.235-2.725-10.157-3.6-.416-.42-.649-.649-.23-1.388M153.46 31.587L167.824.507c.139-.275.373-.507.784-.507h.461c.461 0 .642.232.787.508l14.218 31.079c.283.6-.09 1.204-.781 1.204h-4.018c-.695 0-1.019-.28-1.339-.928l-2.263-4.985h-13.805l-2.269 4.985c-.18.461-.594.928-1.334.928h-4.015c-.697 0-1.063-.604-.79-1.204zm19.95-9.84l-4.618-10.156h-.139l-4.526 10.156h9.283zM198.893 1.342c0-.467.365-.878.826-.878h10.944c8.917 0 16.213 7.25 16.213 16.114 0 8.96-7.296 16.215-16.213 16.215H199.72c-.461 0-.826-.416-.826-.884V1.342zm11.219 25.81c6.007 0 10.39-4.522 10.39-10.574 0-6.004-4.383-10.53-10.39-10.53h-5.266v21.104h5.266zM257.848 0c9.232 0 16.624 7.438 16.624 16.672 0 9.237-7.392 16.58-16.624 16.58-9.235 0-16.574-7.343-16.574-16.58C241.274 7.438 248.613 0 257.848 0m0 27.247c5.82 0 10.621-4.755 10.621-10.575 0-5.82-4.8-10.667-10.621-10.667-5.817 0-10.573 4.847-10.573 10.667 0 5.82 4.756 10.575 10.573 10.575M291.132 1.342c0-.467.368-.878.877-.878h13.206c5.547 0 10.064 4.436 10.064 9.93 0 4.248-2.81 7.712-6.83 9.326l6.329 22.939c.323.6 0 1.341-.789 1.341h-4.85c-.414 0-.643-.227-.738-.416l-6.14-23.446h-5.13v22.978c0 .468-.411.884-.874.884h-4.248c-.51 0-.877-.416-.877-.884V1.342zm13.574 13.85c2.448 0 4.577-2.12 4.577-4.713 0-2.445-2.13-4.474-4.577-4.474h-7.524v9.188h7.524z" transform="translate(-562 -6677) translate(0 5386.813) translate(0 1155.187) translate(562 135)"/>
                    </g>
                </g>
            </g>
        </g>
    </g>
</svg>
