<svg xmlns="http://www.w3.org/2000/svg" width="170" height="45" viewBox="0 0 170 45">
    <g fill="none" fill-rule="evenodd">
        <g fill="#000" fill-rule="nonzero">
            <g>
                <path d="M135.236 34.617c-1.313 0-2.609-.27-3.871-.825-1.262-.538-2.373-1.296-3.349-2.221-.976-.926-1.767-2.037-2.356-3.282s-.892-2.592-.892-4.022c0-1.48.32-2.86.96-4.14.639-1.262 1.463-2.373 2.473-3.281.993-.926 2.137-1.65 3.366-2.155 1.228-.504 2.474-.774 3.669-.774 1.194 0 2.423.253 3.668.774 1.229.505 2.373 1.229 3.366 2.155.993.908 1.834 2.019 2.474 3.281.64 1.262.96 2.66.96 4.14 0 1.414-.304 2.76-.893 4.022-.589 1.245-1.397 2.356-2.356 3.282-.96.925-2.087 1.683-3.349 2.221-1.262.555-2.558.825-3.87.825m0-19.673c-.993 0-1.868.168-2.609.471-.723.32-1.346.842-1.817 1.582-.488.74-.842 1.7-1.077 2.878-.236 1.178-.354 2.659-.354 4.409 0 2.07.168 3.736.488 4.947.32 1.212.758 2.155 1.28 2.81.52.64 1.144 1.078 1.834 1.28.706.202 1.464.303 2.255.303.79 0 1.548-.101 2.255-.303.69-.202 1.312-.623 1.834-1.28.522-.655.96-1.598 1.279-2.81.32-1.211.488-2.894.488-4.947 0-1.75-.118-3.231-.353-4.41-.236-1.177-.606-2.137-1.077-2.877-.488-.74-1.094-1.262-1.818-1.582-.74-.32-1.616-.471-2.608-.471M21.036 24.318c0-6.042 3.702-10.232 10.282-10.232s10.283 4.19 10.283 10.232c0 6.041-3.703 10.231-10.283 10.231s-10.282-4.19-10.282-10.231m15.28 0c0-3.551-1.531-6.395-4.998-6.395-3.466 0-4.998 2.844-4.998 6.395 0 3.567 1.532 6.394 4.998 6.394 3.467 0 4.998-2.844 4.998-6.394M43.132 24.318c0-6.042 3.702-10.232 10.282-10.232s10.283 4.19 10.283 10.232c0 6.041-3.703 10.231-10.283 10.231-6.596 0-10.282-4.19-10.282-10.231m15.28 0c0-3.551-1.53-6.395-4.998-6.395-3.466 0-4.998 2.844-4.998 6.395 0 3.567 1.532 6.394 4.998 6.394 3.45 0 4.998-2.844 4.998-6.394M65.295 24.318c0-6.26 3.652-10.232 9.155-10.232 2.12 0 3.787.589 5.133 1.531V6.193h-3.702V2.188h8.784V30.09h2.979v3.971h-7.623v-2.17c-1.397 1.497-3.198 2.658-6.042 2.658-5.2 0-8.684-4.156-8.684-10.231m14.288 4.728v-9.861c-.993-.724-2.205-1.212-3.786-1.212-3.551 0-5.268 2.44-5.268 6.26 0 3.433 1.397 6.446 4.914 6.446 1.717-.017 3.113-.724 4.14-1.633M156.659 34.684c-5.42 0-9.509-4.392-9.509-10.232 0-4.274 3.5-10.232 9.189-10.232 3.113 0 5.419 2.289 6.344 4.595V3.467h-3.668V2.356h3.736c1.43 0 2.894-.084 3.786-1.128l.118-.134V33h3.164v1.11h-7.153v-3.298c-.723 1.6-2.894 3.871-6.007 3.871m-.32-19.37c-3.955 0-4.645 2.945-4.645 9.138 0 6.496.454 9.138 4.965 9.138 1.581 0 3.147-.656 4.274-1.817 1.144-1.162 1.767-2.71 1.733-4.376v-5.234c.017-3.23-2.591-6.849-6.327-6.849M89.562 34.129v-.875l.068-.017c1.784 0 2.995-.101 3.601-.303.27-.101.37-.185.404-.236.05-.067.101-.27.118-.79V14.96h-4.174v-1.128h4.157V12.05c0-2.877.118-5.25 1.531-7.59 1.633-2.658 3.854-3.029 5.84-3.029 2.945 0 4.258 2.155 4.258 4.292 0 1.127-.791 2.255-2.306 2.255-1.397 0-2.02-.976-2.02-1.935 0-2.222 1.532-2.609 2.508-2.626-.067-.606-1.077-1.11-2.255-1.11-2.104 0-3.5 1.077-3.5 6.344v5.15h4.392v1.127h-4.41v16.997c.018.471.068.64.119.707.033.05.134.135.404.235.605.202 1.834.303 3.635.303h.067v.909H89.562v.05z" transform="translate(-635 -1428) translate(635 1428)"/>
                <path d="M112.837 34.617c-1.313 0-2.609-.27-3.871-.825-1.262-.538-2.373-1.296-3.349-2.221-.976-.926-1.767-2.037-2.356-3.282s-.892-2.592-.892-4.022c0-1.48.32-2.86.96-4.14.639-1.262 1.463-2.373 2.473-3.281.993-.926 2.137-1.65 3.366-2.155 1.245-.504 2.474-.774 3.669-.774 1.194 0 2.423.253 3.668.774 1.229.505 2.373 1.229 3.366 2.155.993.908 1.834 2.019 2.474 3.281.64 1.262.959 2.66.959 4.14 0 1.414-.303 2.76-.892 4.022-.589 1.245-1.397 2.356-2.356 3.282-.96.925-2.087 1.683-3.349 2.221-1.262.555-2.558.825-3.87.825m0-19.673c-.993 0-1.868.168-2.609.471-.724.32-1.346.842-1.817 1.582-.488.74-.842 1.7-1.077 2.878-.236 1.178-.354 2.659-.354 4.409 0 2.07.168 3.736.488 4.947.32 1.212.758 2.155 1.28 2.81.52.64 1.144 1.078 1.834 1.28.706.202 1.464.303 2.255.303.79 0 1.548-.101 2.255-.303.69-.202 1.312-.623 1.834-1.28.522-.655.96-1.598 1.279-2.81.32-1.211.488-2.894.488-4.947 0-1.75-.118-3.231-.353-4.41-.236-1.177-.606-2.137-1.077-2.877-.489-.74-1.094-1.262-1.818-1.582-.74-.32-1.616-.471-2.608-.471M20.615 14.607h-7.808c-.993-.32-2.171-.505-3.45-.505-5.621 0-8.482 3.4-8.482 7.54 0 2.373.909 4.493 2.777 5.907-1.313.959-2.407 2.17-2.407 3.82 0 1.094.505 1.85 1.262 2.406C.774 34.802 0 36.215 0 38.201 0 41.197 2.137 45 9.172 45c8.296 0 10.4-4.813 10.4-7.977 0-8.128-13.884-3.568-13.884-7.54 0-.268.135-.538.37-.773.96.32 2.037.454 3.316.454 5.62 0 8.481-3.4 8.481-7.54 0-1.127-.269-2.271-.673-3.28h3.45v-3.737h-.017zm-6.714 21.356v1.363c0 1.245-.37 2.154-1.128 2.76-.757.589-1.565.892-2.962.892-1.397 0-2.457-.303-3.18-.892-.724-.606-1.094-1.447-1.094-2.558V35.98c-.017-.017 3.837 2.793 8.364-.017M9.357 25.63c-1.734 0-3.72-.909-3.72-3.988 0-3.08 1.986-3.938 3.72-3.938 1.716 0 3.719.858 3.719 3.938 0 3.13-1.986 3.988-3.72 3.988M31.133 8.532H22.08V0h9.054v8.532zm-1.8-2.844l-.152.084c-.707.421-1.464.657-2.154.657-1.481 0-2.457-.892-2.457-2.171 0-1.246 1.026-2.171 2.423-2.188.724 0 1.363.185 2.138.606l.134.084V1.632l-.067-.016c-.875-.337-1.548-.488-2.205-.488-1.026 0-1.918.336-2.558.908-.64.572-1.01 1.397-1.01 2.323 0 .656.27 1.413.842 2.02.572.605 1.447 1.042 2.659 1.042 1.01 0 1.7-.218 2.322-.538l.05-.034V5.69h.034zM20.682 8.532H11.63V0h9.053v8.532zm-2.137-2.878c0-.774-.521-1.363-1.346-1.581.219-.118.404-.253.522-.421.168-.236.252-.505.252-.825 0-.404-.151-.808-.488-1.11-.337-.303-.841-.505-1.548-.505H14v6.142h2.272c.808 0 1.38-.219 1.734-.538.37-.354.538-.774.538-1.162" transform="translate(-635 -1428) translate(635 1428)"/>
                <path d="M17.418 5.537c0 .202-.068.404-.253.572-.185.151-.488.286-1.01.286h-1.043V4.712h.993c.471 0 .791.101 1.01.236.202.134.286.336.303.589M16.56 3.517c.201-.134.286-.336.286-.64 0-.201-.05-.386-.202-.504-.152-.135-.404-.219-.808-.219h-.74v1.582h.504c.455 0 .774-.067.96-.219M10.249 8.532H1.195V0h9.054v8.532zM8.095 5.654c0-.774-.522-1.363-1.347-1.581.22-.118.404-.253.522-.421.168-.236.252-.505.252-.825 0-.404-.151-.808-.488-1.11-.336-.303-.858-.505-1.548-.505H3.568v6.142H5.84c.807 0 1.38-.219 1.733-.538.37-.354.522-.774.522-1.162" transform="translate(-635 -1428) translate(635 1428)"/>
                <path d="M6.126 3.517c.202-.134.286-.336.286-.64 0-.201-.068-.386-.202-.504-.152-.135-.404-.219-.808-.219h-.74v1.582h.504c.455 0 .758-.067.96-.219M6.664 4.948c-.202-.152-.538-.236-1.01-.236h-.992v1.683h1.06c.521 0 .824-.118 1.01-.286.185-.168.235-.37.252-.572-.017-.253-.101-.455-.32-.59" transform="translate(-635 -1428) translate(635 1428)"/>
            </g>
        </g>
    </g>
</svg>
