<svg xmlns="http://www.w3.org/2000/svg" width="19" height="19" viewBox="0 0 19 19">
    <g fill="none" fill-rule="evenodd">
        <g fill="#FFF" fill-rule="nonzero">
            <g>
                <g>
                    <g>
                        <path d="M17.95 5.292c-.042-.956-.196-1.614-.418-2.184-.228-.604-.58-1.146-1.04-1.596-.45-.457-.996-.812-1.594-1.037-.573-.222-1.227-.377-2.183-.419C11.75.011 11.445 0 9.002 0c-2.444 0-2.75.01-3.71.053C4.336.095 3.678.25 3.108.47c-.604.229-1.146.58-1.596 1.041-.457.45-.812.995-1.037 1.593-.222.573-.377 1.227-.419 2.183C.011 6.252 0 6.558 0 9.002c0 2.443.01 2.75.053 3.71.042.956.197 1.613.418 2.183.229.605.584 1.146 1.041 1.596.45.457.995.813 1.593 1.037.573.222 1.227.377 2.184.419.96.042 1.265.053 3.71.053 2.443 0 2.749-.01 3.709-.053.956-.042 1.614-.197 2.183-.419 1.21-.467 2.166-1.424 2.634-2.633.221-.573.376-1.227.418-2.184.043-.96.053-1.266.053-3.71 0-2.443-.003-2.75-.046-3.709zm-1.62 7.349c-.04.879-.187 1.354-.31 1.67-.302.784-.925 1.407-1.709 1.71-.316.122-.794.27-1.67.308-.95.043-1.234.053-3.636.053-2.401 0-2.69-.01-3.636-.053-.879-.038-1.353-.186-1.67-.309-.39-.144-.745-.373-1.034-.672-.299-.291-.527-.643-.671-1.033-.123-.317-.271-.795-.31-1.67-.042-.95-.052-1.235-.052-3.636 0-2.402.01-2.69.052-3.636.039-.88.187-1.354.31-1.67.144-.39.372-.746.675-1.034.292-.3.643-.528 1.034-.672.316-.123.794-.27 1.67-.31.95-.041 1.234-.052 3.636-.052 2.405 0 2.69.01 3.635.053.88.039 1.354.186 1.67.31.39.143.746.372 1.034.67.3.293.528.644.672 1.035.123.316.27.794.31 1.67.042.95.052 1.234.052 3.636 0 2.401-.01 2.683-.052 3.632z" transform="translate(-668 -6773) translate(0 5386.813) translate(0 1155.187) translate(668.902 231.95)"/>
                        <path d="M9.002 4.378c-2.553 0-4.624 2.07-4.624 4.624 0 2.552 2.07 4.623 4.624 4.623 2.552 0 4.623-2.07 4.623-4.623 0-2.553-2.07-4.624-4.623-4.624zm0 7.623c-1.656 0-3-1.343-3-3 0-1.656 1.344-2.999 3-2.999S12 7.345 12 9.002c0 1.656-1.343 2.999-3 2.999zM14.888 4.195c0 .596-.483 1.08-1.08 1.08-.596 0-1.08-.484-1.08-1.08 0-.596.484-1.08 1.08-1.08.597 0 1.08.484 1.08 1.08z" transform="translate(-668 -6773) translate(0 5386.813) translate(0 1155.187) translate(668.902 231.95)"/>
                    </g>
                </g>
            </g>
        </g>
    </g>
</svg>
