<svg xmlns="http://www.w3.org/2000/svg" width="264" height="109" viewBox="0 0 264 109">
    <g fill="none" fill-rule="evenodd">
        <g fill="#1A1919">
            <g>
                <path d="M.184.442c0-.152.12-.289.29-.289h6.199c.169 0 .29.137.29.29V1.69c0 .152-.121.289-.29.289h-4.51v2.5h3.766c.152 0 .29.137.29.29v1.263c0 .168-.138.29-.29.29H2.163v2.665h4.51c.169 0 .29.14.29.292v1.25c0 .152-.121.288-.29.288h-6.2c-.169 0-.289-.136-.289-.288V.442zM21.65.442c0-.152.121-.289.29-.289h1.401c.153 0 .29.137.29.29v8.545h3.886c.169 0 .289.14.289.292v1.25c0 .152-.12.288-.289.288H21.94c-.169 0-.29-.136-.29-.288V.442zM62.448 0c1.539 0 2.651.487 3.686 1.418.137.12.137.305.017.425l-.928.96c-.107.123-.26.123-.383 0-.64-.563-1.493-.899-2.346-.899-1.95 0-3.4 1.63-3.4 3.55 0 1.904 1.464 3.52 3.414 3.52.915 0 1.692-.35 2.332-.867.122-.106.29-.093.383 0l.943.973c.12.108.092.306-.015.413-1.035 1.006-2.347 1.479-3.703 1.479-3.048 0-5.5-2.423-5.5-5.472 0-3.047 2.452-5.5 5.5-5.5M79.268 10.421L84.008.167c.046-.091.121-.167.256-.167h.154c.151 0 .213.076.26.167l4.693 10.254c.09.199-.032.397-.259.397h-1.327c-.227 0-.334-.09-.442-.305l-.745-1.645h-4.555l-.75 1.645c-.059.152-.195.305-.442.305h-1.323c-.23 0-.351-.198-.26-.397zm6.583-3.243l-1.524-3.355h-.046l-1.493 3.355h3.063zM104.379.228c.013-.12.106-.227.272-.227h.245c.121 0 .215.06.26.152l3.353 7.191h.045l3.351-7.19c.046-.093.124-.153.26-.153h.244c.167 0 .258.107.273.227l1.8 10.24c.045.214-.079.35-.276.35h-1.386c-.138 0-.26-.121-.289-.228l-.898-5.775h-.048l-2.665 5.988c-.031.09-.123.167-.26.167h-.275c-.137 0-.213-.077-.259-.167l-2.696-5.988h-.046l-.885 5.775c-.014.107-.137.228-.273.228h-1.372c-.198 0-.319-.136-.29-.35L104.38.228zM129.078.442c0-.152.137-.289.29-.289h1.417c.153 0 .289.137.289.29V10.53c0 .152-.136.288-.29.288h-1.417c-.152 0-.289-.136-.289-.288V.442zM146.35.273c0-.152.138-.272.294-.272h.378l6.337 6.736h.02V.442c0-.151.117-.29.287-.29h1.402c.151 0 .286.139.286.29v10.256c0 .15-.135.272-.286.272h-.364l-6.371-6.994h-.013v6.554c0 .152-.123.288-.291.288h-1.385c-.156 0-.293-.136-.293-.288V.273zM175.347 0c3.048 0 5.483 2.453 5.483 5.5 0 3.049-2.435 5.472-5.483 5.472-3.047 0-5.471-2.423-5.471-5.472 0-3.047 2.424-5.5 5.47-5.5m0 8.989c1.92 0 3.504-1.569 3.504-3.49 0-1.921-1.584-3.52-3.503-3.52-1.923 0-3.49 1.599-3.49 3.52s1.567 3.49 3.49 3.49M211.208.442c0-.152.126-.289.274-.289h3.613c2.94 0 5.35 2.39 5.35 5.318 0 2.956-2.41 5.347-5.35 5.347h-3.613c-.148 0-.274-.136-.274-.288V.442zm3.705 8.517c1.983 0 3.427-1.493 3.427-3.488 0-1.982-1.444-3.474-3.427-3.474h-1.736v6.962h1.736zM234.962.442c0-.152.123-.289.292-.289h6.2c.166 0 .288.137.288.29V1.69c0 .152-.122.289-.288.289h-4.51v2.5h3.763c.153 0 .289.137.289.29v1.263c0 .168-.136.29-.29.29h-3.761v2.665h4.509c.166 0 .288.14.288.292v1.25c0 .152-.122.288-.288.288h-6.2c-.169 0-.292-.136-.292-.288V.442zM256.43.442c0-.152.125-.289.291-.289h1.4c.156 0 .292.137.292.29v8.545h3.886c.167 0 .288.14.288.292v1.25c0 .152-.121.288-.288.288h-5.578c-.166 0-.29-.136-.29-.288V.442zM62.574 99.321c.881 0 1.624.745 1.624 1.628 0 .88-.743 1.605-1.624 1.605-.883 0-1.607-.726-1.607-1.605 0-.883.724-1.628 1.607-1.628M76.332 94.189c.02-.159.136-.295.353-.295h.314c.155 0 .273.078.332.196l4.31 9.248h.058l4.312-9.248c.06-.118.156-.196.332-.196h.315c.213 0 .332.136.352.295l2.31 13.164c.058.273-.096.451-.35.451h-1.785c-.175 0-.332-.157-.372-.296l-1.154-7.422h-.06l-3.429 7.697c-.039.12-.156.217-.332.217h-.354c-.176 0-.274-.098-.333-.217l-3.467-7.697h-.058l-1.138 7.422c-.02.139-.174.296-.352.296h-1.763c-.256 0-.412-.178-.371-.45l2.33-13.165zM100.247 94.462c0-.196.156-.373.373-.373h7.973c.216 0 .373.177.373.373v1.606c0 .196-.157.374-.373.374h-5.797v3.213h4.837c.195 0 .373.174.373.37v1.627c0 .214-.178.374-.373.374h-4.837v3.426h5.797c.216 0 .373.178.373.373v1.607c0 .196-.157.371-.373.371h-7.973c-.217 0-.373-.175-.373-.37v-12.97zM118.714 107.078l5.839-10.54v-.077h-4.898c-.196 0-.371-.177-.371-.373V94.46c0-.195.175-.37.37-.37h8.19c.195 0 .372.175.372.37v.257l-5.76 10.677v.039h4.996c.216 0 .371.175.371.371v1.627c0 .196-.155.373-.37.373h-8.365c-.196 0-.374-.177-.374-.373v-.353zM144.744 93.893c1.978 0 3.409.63 4.74 1.823.177.157.177.39.02.55l-1.198 1.234c-.136.154-.331.154-.489 0-.822-.726-1.917-1.158-3.018-1.158-2.506 0-4.368 2.097-4.368 4.564 0 2.452 1.882 4.526 4.391 4.526 1.175 0 2.173-.45 2.995-1.117.158-.137.373-.116.489 0l1.218 1.254c.156.138.116.393-.02.53-1.334 1.293-3.018 1.9-4.76 1.9-3.922 0-7.075-3.116-7.075-7.034 0-3.918 3.153-7.072 7.075-7.072M158.525 107.294l6.096-13.183c.055-.12.155-.216.331-.216h.195c.196 0 .276.097.334.216l6.035 13.183c.117.254-.04.51-.334.51h-1.707c-.29 0-.428-.119-.566-.392l-.96-2.115h-5.86l-.956 2.115c-.081.196-.257.392-.57.392h-1.702c-.296 0-.453-.256-.336-.51zm8.465-4.173l-1.959-4.31h-.062l-1.917 4.31h3.938zM181.537 94.462c0-.196.156-.373.374-.373h1.802c.195 0 .372.177.372.373v10.99h4.992c.22 0 .373.178.373.373v1.607c0 .196-.153.371-.373.371h-7.166c-.218 0-.374-.175-.374-.37v-12.97zM200.179 99.321c.88 0 1.625.745 1.625 1.628 0 .88-.746 1.605-1.625 1.605-.88 0-1.607-.726-1.607-1.605 0-.883.726-1.628 1.607-1.628M0 39.85c0-.389.304-.731.727-.731h9.046c4.736 0 8.624 3.845 8.624 8.504 0 4.772-3.888 8.663-8.588 8.663H5v18.381c0 .39-.344.737-.73.737H.727c-.423 0-.727-.347-.727-.737V39.85zm9.466 11.737c2.157 0 3.963-1.728 3.963-4.002 0-2.118-1.806-3.736-3.963-3.736H5v7.738h4.466zM31.625 39.85c0-.389.312-.731.73-.731H48.02c.424 0 .732.342.732.731v3.155c0 .383-.308.731-.732.731h-11.39v6.312h9.506c.382 0 .729.348.729.732v3.193c0 .422-.347.732-.73.732h-9.505v6.735h11.39c.424 0 .732.346.732.736v3.15c0 .39-.308.737-.732.737H32.355c-.418 0-.73-.347-.73-.736V39.85zM63.101 39.424c0-.385.348-.69.73-.69h.963l16.012 17.014h.041V39.85c0-.387.304-.73.73-.73h3.539c.386 0 .734.343.734.73v25.902c0 .388-.348.695-.734.695h-.922L68.106 48.779h-.036v16.549c0 .389-.311.734-.732.734h-3.507c-.382 0-.73-.345-.73-.734V39.424zM100.121 62.288l1.382-2.384c.308-.54.962-.54 1.307-.269.194.112 3.314 2.385 5.812 2.385 2.004 0 3.506-1.31 3.506-2.967 0-1.96-1.658-3.305-4.887-4.617-3.624-1.463-7.239-3.77-7.239-8.315 0-3.426 2.54-7.387 8.663-7.387 3.923 0 6.928 2.003 7.693 2.573.389.238.503.892.235 1.275l-1.466 2.193c-.304.462-.886.772-1.345.462-.31-.191-3.236-2.12-5.352-2.12-2.193 0-3.383 1.467-3.383 2.7 0 1.804 1.424 3.038 4.54 4.31 3.736 1.499 8.045 3.731 8.045 8.7 0 3.965-3.426 7.619-8.854 7.619-4.85 0-7.697-2.272-8.465-3-.347-.35-.541-.542-.192-1.158M127.902 65.058l11.971-25.903c.116-.23.311-.423.654-.423h.384c.384 0 .535.193.655.423l11.85 25.903c.236.5-.075 1.004-.65 1.004h-3.349c-.58 0-.849-.233-1.116-.774l-1.886-4.155h-11.506l-1.89 4.155c-.15.384-.496.774-1.113.774h-3.346c-.58 0-.886-.503-.658-1.004zm16.627-8.2l-3.85-8.465h-.115l-3.773 8.464h7.738zM165.767 39.85c0-.389.305-.731.689-.731h9.122c7.43 0 13.512 6.042 13.512 13.43 0 7.467-6.081 13.514-13.512 13.514h-9.122c-.384 0-.689-.347-.689-.736V39.85zm9.35 21.512c5.008 0 8.66-3.769 8.66-8.813 0-5.005-3.652-8.777-8.66-8.777h-4.388v17.59h4.389zM214.904 38.732c7.694 0 13.855 6.199 13.855 13.895 0 7.699-6.16 13.82-13.855 13.82-7.697 0-13.814-6.121-13.814-13.82 0-7.696 6.117-13.895 13.814-13.895m0 22.71c4.851 0 8.852-3.964 8.852-8.815 0-4.85-4-8.89-8.852-8.89-4.849 0-8.813 4.04-8.813 8.89 0 4.85 3.964 8.814 8.813 8.814M242.644 39.85c0-.389.307-.731.731-.731h11.007c4.623 0 8.388 3.697 8.388 8.275 0 3.541-2.343 6.428-5.693 7.774l5.275 19.118c.27.5 0 1.118-.657 1.118h-4.042c-.345 0-.537-.19-.616-.347l-5.117-19.541h-4.276v19.151c0 .39-.342.737-.728.737h-3.54c-.425 0-.732-.347-.732-.737V39.85zm11.313 11.544c2.04 0 3.816-1.768 3.816-3.929 0-2.037-1.775-3.729-3.816-3.729h-6.27v7.658h6.27z" transform="translate(-1001 -1952) translate(1001.35 1952.72)"/>
            </g>
        </g>
    </g>
</svg>
