<svg xmlns="http://www.w3.org/2000/svg" width="19" height="19" viewBox="0 0 19 19">
    <g fill="none" fill-rule="evenodd">
        <g fill="#000" fill-rule="nonzero">
            <g>
                <g>
                    <path d="M8.843-.1c4.939 0 8.943 3.966 8.943 8.858s-4.004 8.858-8.943 8.858S-.1 13.65-.1 8.758 3.904-.1 8.843-.1zm0 .2C4.014.1.1 3.976.1 8.758s3.914 8.658 8.743 8.658c4.829 0 8.743-3.876 8.743-8.658S13.672.1 8.843.1zm0 .205c4.715 0 8.538 3.784 8.538 8.453s-3.823 8.453-8.538 8.453S.305 13.427.305 8.758 4.128.305 8.843.305zm0 .2C4.238.505.505 4.2.505 8.758s3.733 8.253 8.338 8.253c4.605 0 8.338-3.695 8.338-8.253S13.448.505 8.843.505z" transform="translate(-269 -2469) translate(148 2467) translate(121.798 2.798)"/>
                    <path stroke="#000" stroke-width=".2" d="M6.863 5.44c-.236.13-.383.376-.383.644v5.348c0 .268.147.515.384.645.11.06.234.092.359.092.138 0 .274-.039.392-.112l4.32-2.673c.218-.135.35-.372.35-.626s-.132-.49-.349-.625l-4.32-2.674c-.23-.142-.517-.15-.753-.02zm.54.363l4.32 2.674c.098.06.158.167.158.281 0 .114-.06.22-.158.282l-4.32 2.673c-.054.033-.117.051-.18.051-.058 0-.114-.014-.164-.042-.108-.059-.174-.17-.174-.29V6.084c0-.12.066-.231.173-.29.108-.06.24-.056.345.009z" transform="translate(-269 -2469) translate(148 2467) translate(121.798 2.798)"/>
                </g>
            </g>
        </g>
    </g>
</svg>
