<svg xmlns="http://www.w3.org/2000/svg" width="70" height="70" viewBox="0 0 70 70">
    <g fill="none" fill-rule="evenodd">
        <g fill="#FFF" fill-rule="nonzero">
            <g>
                <path d="M33.592-.798C14.607-.798-.787 14.654-.787 33.72c0 19.065 15.394 34.517 34.38 34.517 18.985 0 34.379-15.452 34.379-34.517 0-19.065-15.394-34.517-34.38-34.517zm0 1.596c18.12 0 32.806 14.741 32.806 32.921S51.712 66.641 33.592 66.641C15.472 66.64.787 51.899.787 33.719.787 15.54 15.473.798 33.592.798z" transform="translate(-28 -612) translate(29.646 613.275)"/>
                <path d="M25.896 20.64c-.917.511-1.488 1.484-1.488 2.542v21.074c0 1.059.57 2.031 1.49 2.543.428.239.909.362 1.396.362.537 0 1.066-.15 1.526-.439l16.797-10.537c.845-.532 1.36-1.463 1.36-2.466 0-1.003-.515-1.934-1.36-2.465L28.822 20.716c-.89-.558-2.01-.588-2.925-.075zm2.096 1.433L44.79 32.61c.382.24.614.66.614 1.11 0 .449-.232.868-.615 1.109L27.993 45.366c-.21.131-.453.2-.7.2-.223 0-.442-.056-.638-.165-.417-.233-.674-.67-.674-1.145V23.182c0-.475.257-.912.674-1.144.418-.234.93-.22 1.337.035z" transform="translate(-28 -612) translate(29.646 613.275)"/>
            </g>
        </g>
    </g>
</svg>
