<?xml version="1.0" encoding="utf-8"?>
<!-- Generator: Adobe Illustrator 16.0.0, SVG Export Plug-In . SVG Version: 6.00 Build 0)  -->
<!DOCTYPE svg PUBLIC "-//W3C//DTD SVG 1.1//EN" "http://www.w3.org/Graphics/SVG/1.1/DTD/svg11.dtd">
<svg version="1.1" id="Layer_1" xmlns="http://www.w3.org/2000/svg" xmlns:xlink="http://www.w3.org/1999/xlink" x="0px" y="0px"
	 width="19px" height="19px" viewBox="0 0 19 19" enable-background="new 0 0 19 19" xml:space="preserve">
<g>
	<g>
		<g>
			<g>
				<path fill="#FFFFFF" d="M9.641,0.698c4.939,0,8.943,3.966,8.943,8.858s-4.004,8.858-8.943,8.858s-8.943-3.966-8.943-8.858
					S4.702,0.698,9.641,0.698z M9.641,0.898c-4.829,0-8.743,3.876-8.743,8.658c0,4.782,3.914,8.658,8.743,8.658
					c4.83,0,8.743-3.876,8.743-8.658C18.384,4.774,14.471,0.898,9.641,0.898z M9.641,1.103c4.714,0,8.539,3.784,8.539,8.453
					c0,4.668-3.824,8.453-8.539,8.453c-4.715,0-8.538-3.784-8.538-8.453C1.103,4.887,4.926,1.103,9.641,1.103z M9.641,1.303
					c-4.605,0-8.338,3.695-8.338,8.253s3.733,8.252,8.338,8.252s8.337-3.694,8.337-8.252S14.246,1.303,9.641,1.303z"/>
				<path fill="#FFFFFF" stroke="#FFFFFF" stroke-width="0.2" d="M7.661,6.238c-0.236,0.13-0.383,0.376-0.383,0.644v5.349
					c0,0.268,0.147,0.515,0.384,0.645c0.11,0.061,0.234,0.092,0.359,0.092c0.138,0,0.274-0.039,0.392-0.111l4.319-2.674
					c0.219-0.135,0.351-0.372,0.351-0.625c0-0.254-0.132-0.49-0.349-0.625l-4.32-2.674C8.184,6.115,7.897,6.107,7.661,6.238
					L7.661,6.238z M8.201,6.601l4.32,2.674c0.098,0.06,0.158,0.167,0.158,0.281c0,0.114-0.061,0.22-0.158,0.282l-4.32,2.674
					c-0.054,0.032-0.117,0.051-0.18,0.051c-0.058,0-0.114-0.015-0.164-0.043c-0.108-0.059-0.174-0.17-0.174-0.289V6.882
					c0-0.12,0.066-0.231,0.173-0.29C7.964,6.532,8.096,6.536,8.201,6.601z"/>
			</g>
		</g>
	</g>
</g>
</svg>
