<svg xmlns="http://www.w3.org/2000/svg" width="202" height="29" viewBox="0 0 202 29">
    <g fill="none" fill-rule="evenodd">
        <g fill="#000">
            <g>
                <path d="M0 .854C0 .557.232.296.555.296h6.907c3.616 0 6.584 2.936 6.584 6.492 0 3.644-2.968 6.615-6.556 6.615H3.818v14.035c0 .297-.264.562-.559.562H.555C.232 28 0 27.735 0 27.438V.854zM194.228.296c3.53 0 6.404 2.822 6.404 6.318 0 2.704-1.788 4.908-4.346 5.935l4.027 14.597c.206.383 0 .854-.502.854h-3.086c-.263 0-.41-.145-.47-.265l-3.907-14.92h-3.265v14.623c0 .297-.261.562-.556.562h-2.703c-.324 0-.558-.265-.558-.562V.854c0-.297.234-.558.558-.558h8.404zM49.472 0l12.226 12.991h.031V.854c0-.295.232-.558.557-.558h2.702c.295 0 .561.263.561.558v19.777c0 .296-.266.53-.56.53h-.704L52 7.671h-.028v12.636c0 .297-.237.56-.558.56h-2.678c-.292 0-.557-.263-.557-.56V.529c0-.294.265-.528.557-.528h.735zm33.497 0c2.995 0 5.29 1.53 5.874 1.965.296.182.384.681.179.974l-1.12 1.674c-.231.353-.676.59-1.026.353-.236-.146-2.47-1.618-4.086-1.618-1.675 0-2.584 1.12-2.584 2.06 0 1.378 1.088 2.32 3.466 3.291 2.853 1.145 6.144 2.85 6.144 6.643 0 3.027-2.617 5.817-6.76 5.817-3.704 0-5.878-1.734-6.464-2.29-.265-.268-.413-.413-.146-.884l1.054-1.82c.236-.412.735-.412.998-.206.148.086 2.53 1.822 4.438 1.822 1.53 0 2.677-1.001 2.677-2.266 0-1.496-1.266-2.524-3.732-3.525-2.766-1.117-5.526-2.879-5.526-6.35 0-2.615 1.939-5.64 6.614-5.64zm81.116 0c5.875 0 10.579 4.732 10.579 10.608 0 5.879-4.704 10.552-10.579 10.552-5.877 0-10.547-4.673-10.547-10.552 0-5.876 4.67-10.609 10.547-10.609zM36.665.295c.324 0 .56.261.56.558v2.409c0 .292-.236.558-.56.558H27.97v4.82h7.258c.292 0 .557.265.557.558v2.438c0 .322-.265.56-.557.56h-7.258v5.142h8.697c.323 0 .558.264.558.561v2.406c0 .297-.235.562-.558.562H24.704c-.32 0-.558-.265-.558-.562V.854c0-.297.239-.558.558-.558h11.962zm97.393 0c5.674 0 10.318 4.613 10.318 10.254 0 5.701-4.644 10.318-10.318 10.318h-6.964c-.294 0-.526-.265-.526-.562V.854c0-.297.232-.558.526-.558h6.964zM107.59 0c.294 0 .41.147.5.323l9.049 19.778c.18.382-.058.766-.497.766h-2.557c-.442 0-.648-.178-.852-.59l-1.44-3.173h-8.785l-1.444 3.173c-.114.293-.378.59-.849.59H98.16c-.443 0-.676-.384-.502-.766l9.14-19.778c.088-.176.238-.323.5-.323h.292zm56.496 3.821c-3.702 0-6.728 3.085-6.728 6.788 0 3.704 3.026 6.73 6.728 6.73 3.704 0 6.76-3.026 6.76-6.73 0-3.703-3.056-6.788-6.76-6.788zm-30.378.027h-3.35v13.43h3.35c3.823 0 6.612-2.877 6.612-6.728 0-3.821-2.789-6.702-6.612-6.702zm-26.294 3.528h-.088l-2.88 6.463h5.907l-2.94-6.463zM7.228 3.907c1.646 0 3.025 1.235 3.025 2.853 0 1.736-1.379 3.056-3.025 3.056h-3.41V3.907zm186.676-.086h-4.788v5.847h4.788c1.557 0 2.913-1.35 2.913-3 0-1.555-1.356-2.847-2.913-2.847z" transform="translate(-620.000000, -32.000000) translate(620.496300, 32.051600)"/>
            </g>
        </g>
    </g>
</svg>
