<svg xmlns="http://www.w3.org/2000/svg" width="18" height="18" viewBox="0 0 18 18">
    <g fill="none" fill-rule="evenodd">
        <g fill="#000">
            <g>
                <path d="M7.927 0c4.37 0 7.927 3.556 7.927 7.927 0 1.922-.688 3.687-1.831 5.061l3.763 3.763c.285.286.285.749 0 1.035-.143.143-.33.214-.518.214-.187 0-.374-.071-.517-.214l-3.763-3.763c-1.374 1.143-3.139 1.83-5.061 1.83C3.557 15.854 0 12.299 0 7.928 0 3.557 3.556 0 7.927 0zm0 14.39c-3.564 0-6.464-2.9-6.464-6.463 0-3.564 2.9-6.464 6.464-6.464 3.564 0 6.463 2.9 6.463 6.464 0 3.564-2.9 6.463-6.463 6.463z" transform="translate(-1276.000000, -33.000000) translate(1276.000100, 33.000000)"/>
            </g>
        </g>
    </g>
</svg>
